# xmcd
#
# Track frame offsets: 
#        150
#        12585
#        25373
#        35375
#        45794
#        54146
#        72527
#        87313
#        101257
#        111512
#        123520
#        135393
#        146874
#        157715
#        169780
#        177439
#        190029
#        201107
#
# Disc length: 2815 seconds
#
# Revision: 0
# Processed by: cddbd v1.5.2PL0 Copyright (c) Steve Scherf et al.
# Submitted via: ExactAudioCopy v0.95a5
#
DISCID=ef0afd12
DTITLE=Johnny Cash - 18 GREATEST
DYEAR=2006
DGENRE=Country
TTITLE0=I Walk The Line
TTITLE1=Folsom Prison Blues
TTITLE2=Ballad Of A Teenage Queen
TTITLE3=There You Go
TTITLE4=Guess Things Happen That Way
TTITLE5=One Piece At A Time
TTITLE6=There Ain't No Good Chain Gang (with Waylon Jennings)
TTITLE7=Oney
TTITLE8=The Ways Of A Woman In Love
TTITLE9=Home Of The Blues
TTITLE10=So Doggone Lonesome
TTITLE11=Big River
TTITLE12=Train Of Love
TTITLE13=Qou're The Nearest Thing To Heaven
TTITLE14=Come In Stranger
TTITLE15=Next In Line
TTITLE16=Cry, Cry, Cry
TTITLE17=Hey, Porter
EXTD=
EXTT0=
EXTT1=
EXTT2=
EXTT3=
EXTT4=
EXTT5=
EXTT6=
EXTT7=
EXTT8=
EXTT9=
EXTT10=
EXTT11=
EXTT12=
EXTT13=
EXTT14=
EXTT15=
EXTT16=
EXTT17=
PLAYORDER=
